<svg width="57" height="49" viewBox="0 0 57 49" fill="none" xmlns="http://www.w3.org/2000/svg">
<path d="M11.7122 17.4927V12.7103H10.7889C10.5682 12.7103 10.357 12.6717 10.1596 12.6038C9.24414 13.0153 8.54102 14.0759 8.54102 15.123C8.54102 16.6206 10.0377 17.8489 11.7164 17.6647C11.7149 17.6074 11.7122 17.5501 11.7122 17.4927Z" fill="#FFB1A0"/>
<path d="M11.7122 17.2741C10.9247 16.8152 10.3908 16.0172 10.3908 15.1229C10.3908 14.1926 10.9464 13.2528 11.7122 12.7658V12.7102H10.7889C10.5682 12.7102 10.357 12.6715 10.1596 12.6036C9.24414 13.0152 8.54102 14.0758 8.54102 15.1229C8.54102 16.6204 10.0377 17.8488 11.7164 17.6646C11.7149 17.6072 11.7122 17.5501 11.7122 17.4925V17.2741Z" fill="#FFA68E"/>
<path d="M25.8687 15.5034H27.8812C27.8852 15.4466 27.8879 15.172 27.8879 15.1143C27.8879 13.9759 27.1466 12.7996 26.0646 12.4573C25.8558 12.6153 25.5971 12.7103 25.3167 12.7103C25.1484 12.7103 24.8754 12.6922 24.7168 12.6586V16.9816C24.7168 16.4056 25.2926 15.5034 25.8687 15.5034Z" fill="#FFB1A0"/>
<path d="M26.685 12.7688C26.4946 12.6352 26.2873 12.5278 26.0645 12.4573C25.8557 12.6153 25.5969 12.7103 25.3164 12.7103C25.1482 12.7103 24.8752 12.6922 24.7166 12.6586V16.9816C24.7166 16.4055 25.2924 15.5033 25.8684 15.5033H26.6849V12.7688H26.685Z" fill="#FFA68E"/>
<path d="M28.1807 39.9006C27.4748 39.9006 26.9025 39.3284 26.9025 38.6225V27.4364C26.4888 27.2761 25.86 27.1169 25.4643 26.9637C21.8425 30.5855 22.0283 30.4222 21.6319 30.728C19.4114 32.4408 16.2433 32.2428 14.2505 30.25L10.95 26.9495L4.90463 29.3105C3.37663 29.9393 1.33081 31.9178 1.33081 34.8537V46.4046C1.33081 47.0623 1.86397 47.5955 2.52172 47.5955H33.9069C34.5647 47.5955 35.0979 47.0623 35.0979 46.4046C35.0979 46.1689 35.0979 42.7495 35.0979 39.9006H28.1807Z" fill="#695D67"/>
<path d="M4.25386 33.6453C4.25386 31.0757 5.82093 29.2397 7.23643 28.3998L4.90476 29.3104C3.37664 29.9393 1.33081 31.9178 1.33081 34.8537V46.4047C1.33081 47.0624 1.86398 47.5956 2.52173 47.5956H4.25386C4.25386 42.5797 4.25386 34.4182 4.25386 33.6453Z" fill="#544E55"/>
<path d="M19.3165 28.3698L21.9481 25.4304C21.8978 25.3369 21.8686 25.2313 21.8682 25.1201L21.8665 22.6217C19.5436 24.1417 16.6045 23.9364 14.5565 22.6121V25.1162C14.5565 25.2485 14.5251 25.3541 14.4761 25.4397L17.0985 28.3698C17.1569 28.4276 17.1951 28.4971 17.2174 28.5706H19.1974C19.2198 28.4971 19.258 28.4276 19.3165 28.3698Z" fill="#FFB1A0"/>
<path d="M18.1099 28.4563V23.6835C16.8282 23.6568 15.5808 23.2744 14.5565 22.6121V25.1162C14.5565 25.2485 14.5251 25.3541 14.4761 25.4397L17.0985 28.3698C17.1569 28.4276 17.1951 28.4971 17.2174 28.5706H18.1064C18.1085 28.5331 18.1099 28.4954 18.1099 28.4563Z" fill="#FFA68E"/>
<path d="M26.6851 18.6183V38.8403C26.6851 39.5461 27.2573 40.1184 27.9632 40.1184H52.2715C52.9774 40.1184 53.5496 39.5462 53.5496 38.8403V18.6183H26.6851Z" fill="#DFEBFA"/>
<path d="M32.7784 38.8403V18.6183H26.6851V38.8403C26.6851 39.5462 27.2573 40.1184 27.9632 40.1184H34.0566C33.3506 40.1184 32.7784 39.5462 32.7784 38.8403Z" fill="#B1DBFC"/>
<path d="M40.1172 44.1185C39.1571 44.1185 38.3787 44.897 38.3787 45.8571C38.3787 46.8172 39.1571 47.5956 40.1172 47.5956C41.0773 47.5956 41.8558 46.8172 41.8558 45.8571C41.8558 44.8968 41.0775 44.1185 40.1172 44.1185Z" fill="#DFEBFA"/>
<path d="M39.9927 45.8571C39.9927 45.1883 40.3707 44.6087 40.9243 44.3179C40.6829 44.1911 40.4087 44.1185 40.1172 44.1185C39.1571 44.1185 38.3787 44.8968 38.3787 45.8571C38.3787 46.8172 39.1571 47.5956 40.1172 47.5956C40.4087 47.5956 40.6829 47.5231 40.9243 47.3963C40.3707 47.1053 39.9927 46.5257 39.9927 45.8571Z" fill="#B1DBFC"/>
<path d="M54.366 15.2856H25.8685C25.2924 15.2856 24.8254 15.7527 24.8254 16.3287V17.9016C24.8254 18.4777 25.2924 18.9447 25.8685 18.9447H54.3661C54.9422 18.9447 55.4092 18.4777 55.4092 17.9016V16.3287C55.4091 15.7527 54.9421 15.2856 54.366 15.2856Z" fill="#8479C2"/>
<path d="M32.4965 17.9016V16.3287C32.4965 15.7527 32.9635 15.2856 33.5395 15.2856H25.8685C25.2924 15.2856 24.8254 15.7527 24.8254 16.3287V17.9016C24.8254 18.4777 25.2924 18.9447 25.8685 18.9447H33.5395C32.9635 18.9447 32.4965 18.4777 32.4965 17.9016Z" fill="#6E60B8"/>
<path d="M33.2734 29.4222H30.9324C30.6541 29.4222 30.4285 29.6478 30.4285 29.9261V33.748C30.4285 33.9661 30.6053 34.143 30.8236 34.143H33.7773V29.9262C33.7772 29.6478 33.5516 29.4222 33.2734 29.4222Z" fill="#43CB8E"/>
<path d="M32.1598 29.9261C32.1598 29.6479 32.3854 29.4222 32.6637 29.4222H30.9324C30.6541 29.4222 30.4285 29.6478 30.4285 29.9261V33.748C30.4285 33.9661 30.6053 34.143 30.8236 34.143H32.1598V29.9261Z" fill="#00BA66"/>
<path d="M36.5134 27.4045H34.1724C33.8941 27.4045 33.6685 27.6301 33.6685 27.9084V34.143H37.0172V27.9084C37.0173 27.6302 36.7917 27.4045 36.5134 27.4045Z" fill="#FFE181"/>
<path d="M35.9037 27.4045H34.1724C33.8941 27.4045 33.6685 27.6301 33.6685 27.9083V34.1429H35.3998V27.9083C35.3999 27.6302 35.6255 27.4045 35.9037 27.4045Z" fill="#FEC458"/>
<path d="M39.6394 25.3113H37.4072C37.129 25.3113 36.9033 25.5368 36.9033 25.8152V34.143H39.7482C39.9664 34.143 40.1433 33.9662 40.1433 33.7479V25.8152C40.1432 25.5368 39.9177 25.3113 39.6394 25.3113Z" fill="#FF7F87"/>
<path d="M39.1386 25.3113H37.4072C37.129 25.3113 36.9033 25.5368 36.9033 25.8152V34.143H38.6347V25.8152C38.6347 25.5368 38.8603 25.3113 39.1386 25.3113Z" fill="#FF656F"/>
<path d="M19.1976 28.244H17.2176C17.2672 28.407 17.0126 28.5908 16.8841 28.7202L14.7891 31.0485C16.7986 32.6041 19.6206 32.6061 21.6322 31.0545L19.5312 28.7202C19.4027 28.5908 19.148 28.407 19.1976 28.244Z" fill="#FEC458"/>
<path d="M22.2906 25.7346C22.1404 25.6767 22.0214 25.5666 21.9482 25.4304L19.3165 28.0434C19.1285 28.2293 19.1271 28.5327 19.3134 28.7203L21.6321 31.0545C21.8215 30.9084 22.0044 30.7502 22.1781 30.5766L25.6997 27.0549C23.962 26.3818 22.4678 25.8032 22.2906 25.7346Z" fill="#FFE181"/>
<path d="M14.4761 25.4396C14.4242 25.5301 14.3524 25.5983 14.275 25.6509L10.7153 27.0411L14.2507 30.5765C14.4219 30.7477 14.6023 30.904 14.7889 31.0485L17.1016 28.7202C17.288 28.5326 17.2865 28.2292 17.0985 28.0433L14.4761 25.4396Z" fill="#FFE181"/>
<path d="M22.94 10.116C22.94 9.98874 22.7695 9.94478 22.7094 10.0572C21.9346 11.5063 20.4076 12.4927 18.6495 12.4927H15.7275V17.4761C15.7275 20.2232 17.428 22.7801 20.1725 23.7363C22.8603 22.9326 24.8255 20.4383 24.8255 17.4927V12.441C23.752 12.2131 22.94 11.255 22.94 10.116Z" fill="#FFCEBE"/>
<path d="M15.826 17.4927V12.4927H11.6033V17.4927C11.6033 20.8986 14.2719 24.0094 18.3086 24.0094C19.0224 24.0094 19.709 23.8924 20.3523 23.6794C17.5627 22.7935 15.826 20.2397 15.826 17.4927Z" fill="#FFB1A0"/>
<path d="M24.4021 4.24094C23.7795 4.28882 23.2081 3.89732 23.0883 3.2844C22.8865 2.25224 22.3754 1.22791 20.3793 1.22791H13.4535C10.9117 1.22791 8.85107 3.28843 8.85107 5.83032V10.8813C8.85107 11.9516 9.71872 12.8192 10.789 12.8192H18.6494C20.4076 12.8192 21.9345 11.8329 22.7093 10.3838C22.7694 10.2715 22.9399 10.3153 22.9399 10.4426C22.9399 11.7498 24.0094 12.8192 25.3165 12.8192C26.0017 12.8192 26.5623 12.2587 26.5623 11.5735C26.5623 9.65866 26.5623 8.26003 26.5623 6.30255C26.5623 5.06071 25.4789 4.15814 24.4021 4.24094Z" fill="#695D67"/>
<path d="M12.6594 10.9865V5.79778C12.6594 3.60626 14.1507 1.76379 16.1737 1.22791H13.4532C10.9115 1.22791 8.85083 3.28843 8.85083 5.83032V10.8813C8.85083 11.9516 9.71847 12.8192 10.7887 12.8192H13.8722C13.1593 12.5162 12.6594 11.8097 12.6594 10.9865Z" fill="#544E55"/>
<path d="M49.3453 28.9093H44.1225C43.6717 28.9093 43.3064 29.2747 43.3064 29.7254C43.3064 30.1761 43.6717 30.5414 44.1225 30.5414H49.3453C49.7961 30.5414 50.1614 30.1761 50.1614 29.7254C50.1614 29.2747 49.7961 28.9093 49.3453 28.9093Z" fill="black"/>
<path d="M49.3453 32.2637H44.1225C43.6717 32.2637 43.3064 32.6291 43.3064 33.0798C43.3064 33.5305 43.6717 33.8959 44.1225 33.8959H49.3453C49.7961 33.8959 50.1614 33.5305 50.1614 33.0798C50.1614 32.6291 49.7961 32.2637 49.3453 32.2637Z" fill="black"/>
<path d="M49.3453 25.5548H44.1225C43.6717 25.5548 43.3064 25.9202 43.3064 26.3709C43.3064 26.8216 43.6717 27.1869 44.1225 27.1869H49.3453C49.7961 27.1869 50.1614 26.8216 50.1614 26.3709C50.1614 25.9202 49.7961 25.5548 49.3453 25.5548Z" fill="black"/>
<path d="M37.4071 24.4935C36.6793 24.4935 36.0871 25.0857 36.0871 25.8135V26.5868H34.1723C33.4446 26.5868 32.8525 27.1789 32.8525 27.9067V28.6046H30.9324C30.2047 28.6046 29.6125 29.1967 29.6125 29.9244V33.7462C29.6125 34.4141 30.1558 34.9574 30.8236 34.9574H39.7482C40.416 34.9574 40.9593 34.4141 40.9593 33.7462V25.8135C40.9593 25.0857 40.3673 24.4935 39.6394 24.4935H37.4071ZM32.8525 33.3252H31.2447V30.2367H32.8525V33.3252ZM36.0871 33.3252H34.4846C34.4846 32.3321 34.4846 29.2314 34.4846 28.2189H36.0871V33.3252ZM39.327 33.3252H37.7245C37.7245 28.047 37.7192 26.369 37.7192 26.1257H39.3269V33.3252H39.327Z" fill="black"/>
<path d="M2.52163 48.4098H16.3101C16.7609 48.4098 17.1262 48.0444 17.1262 47.5938C17.1262 47.1431 16.7609 46.7777 16.3101 46.7777H7.92474V35.8144C7.92474 35.3638 7.55947 34.9984 7.10868 34.9984C6.65788 34.9984 6.29261 35.3638 6.29261 35.8144V46.7777H2.52163C2.315 46.7777 2.14678 46.6096 2.14678 46.4028V34.852C2.14678 32.2696 3.97564 30.5767 5.20898 30.0661L10.5154 27.9937L13.6735 31.1518C14.8315 32.31 16.4461 33.0335 18.2142 33.0334C19.9187 33.0333 21.549 32.3574 22.755 31.1519L25.8687 28.0381V38.8386C25.8687 39.9934 26.8082 40.9328 27.9629 40.9328H28.5037V46.7779H20.1184C19.6676 46.7779 19.3023 47.1433 19.3023 47.594C19.3023 48.0447 19.6676 48.41 20.1184 48.41H33.9069C35.0136 48.41 35.9138 47.5098 35.9138 46.4031V40.9328H39.3011V43.4353C38.2916 43.7766 37.5625 44.7322 37.5625 45.8554C37.5625 47.2641 38.7085 48.41 40.1171 48.41C41.5258 48.41 42.6717 47.2641 42.6717 45.8554C42.6717 44.7322 41.9427 43.7766 40.9332 43.4353V40.9328H52.2713C53.426 40.9328 54.3654 39.9934 54.3654 38.8386V31.6298C54.3654 31.1791 54.0001 30.8137 53.5493 30.8137C53.0985 30.8137 52.7333 31.1791 52.7333 31.6298V38.8386C52.7333 39.0934 52.526 39.3007 52.2713 39.3007H35.0978H27.963C27.7082 39.3007 27.501 39.0934 27.501 38.8386C27.501 38.3244 27.501 20.2733 27.501 19.7592H52.7333V27.8215C52.7333 28.2721 53.0985 28.6375 53.5493 28.6375C54.0001 28.6375 54.3654 28.2721 54.3654 27.8215V19.7592H54.366C55.391 19.7592 56.2249 18.9251 56.2249 17.9001V16.3271C56.2249 15.302 55.391 14.4681 54.366 14.4681H28.6413C28.4741 13.5783 27.9707 12.785 27.2555 12.2657C27.3335 12.0485 27.3782 11.8156 27.3782 11.5719V6.30061C27.3782 4.57425 25.8824 3.30696 24.3393 3.42545C24.1473 3.44036 23.9313 3.34199 23.8889 3.1259C23.5315 1.29846 22.3834 0.410034 20.379 0.410034H13.4533C10.4655 0.410034 8.03486 2.84071 8.03486 5.82849V10.8795C8.03486 11.5872 8.3034 12.2333 8.74364 12.7216C8.10917 13.3647 7.72475 14.2302 7.72475 15.1213C7.72475 16.7851 9.02338 18.2657 10.8566 18.4723C11.1188 20.3466 12.124 22.1582 13.7402 23.3639V24.9819C12.8222 25.3405 5.5798 28.169 4.60749 28.5487C4.60292 28.5506 4.59835 28.5524 4.59378 28.5543C2.62924 29.3628 0.514648 31.6785 0.514648 34.852V46.403C0.514648 47.5095 1.41493 48.4098 2.52163 48.4098ZM40.1171 44.9328C40.6258 44.9328 41.0396 45.3466 41.0396 45.8553C41.0396 46.364 40.6258 46.7778 40.1171 46.7778C39.6084 46.7778 39.1946 46.364 39.1946 45.8553C39.1946 45.3466 39.6084 44.9328 40.1171 44.9328ZM30.1359 40.9327H34.2817V46.403C34.2817 46.6096 34.1135 46.7778 33.9069 46.7778H30.136V40.9327H30.1359ZM16.0839 30.9009C17.0575 29.9206 16.7039 30.2766 17.6805 29.2934C17.6816 29.2923 17.6825 29.2911 17.6835 29.2901C17.7554 29.2172 17.8235 29.1256 17.8652 29.0582H18.5494C18.5931 29.1297 18.6633 29.222 18.7342 29.2934L20.3354 30.9053C18.9979 31.5682 17.4199 31.5664 16.0839 30.9009ZM15.3713 25.1768C15.372 25.1561 15.3725 25.1353 15.3725 25.1143V24.2764C17.056 24.9481 19.1548 25.0572 21.0513 24.2892L21.0521 25.1205C21.0521 25.1361 21.0524 25.1516 21.053 25.1672C20.1063 26.1071 19.6967 26.5138 18.7779 27.4261H17.637C17.0626 26.856 15.8332 25.6354 15.3713 25.1768ZM21.6678 29.9308C21.5111 29.7732 20.311 28.5648 20.1306 28.3831L22.0229 26.5043C23.1733 26.9499 23.1104 26.9255 24.2368 27.3617L21.6678 29.9308ZM25.8688 26.2435L22.6842 25.0103L22.6828 23.3724C23.9105 22.457 24.8432 21.167 25.3099 19.6731C25.4863 19.7288 25.6737 19.7592 25.8683 19.7592H25.8688V26.2435ZM54.366 16.1C54.491 16.1 54.5928 16.2019 54.5928 16.3269V17.8998C54.5928 18.025 54.491 18.1268 54.366 18.1268C52.9946 18.1268 27.2664 18.1268 25.8683 18.1268C25.7433 18.1268 25.6414 18.025 25.6414 17.8998C25.6414 17.0029 25.6414 17.1969 25.6414 16.3269C25.6414 16.2018 25.7433 16.0999 25.8683 16.0999C27.5505 16.1 52.7054 16.1 54.366 16.1ZM26.1171 13.4714C26.4997 13.6838 26.8001 14.0457 26.9554 14.4678H25.8683C25.7943 14.4678 25.6913 14.4754 25.6414 14.4815V13.6076C25.8031 13.582 25.987 13.5266 26.1171 13.4714ZM10.7872 16.8075C9.97426 16.6138 9.35688 15.9387 9.35688 15.1212C9.35688 14.5242 9.71726 13.9232 10.2585 13.5817C10.3871 13.6068 10.5187 13.6234 10.6529 13.63C10.6976 13.6323 10.7423 13.6333 10.7871 13.6335V16.8075H10.7872ZM10.7888 12.0012C10.184 12.0012 9.66699 11.5081 9.66699 10.8794V5.82849C9.66699 3.74067 11.3655 2.04217 13.4533 2.04217H20.379C21.8909 2.04217 22.1377 2.67489 22.2872 3.43916C22.4828 4.43955 23.4202 5.13299 24.4644 5.05279C25.069 5.00666 25.746 5.5358 25.746 6.30061V11.5715C25.746 11.8063 25.5433 12.0012 25.3163 12.0012C24.4472 12.0012 23.7558 11.2834 23.7558 10.4407C23.7558 9.46434 22.4456 9.14292 21.9895 9.99696C21.3286 11.2331 20.0485 12.0011 18.6493 12.0011C17.5091 12.0012 11.9309 12.0012 10.7888 12.0012ZM12.4193 17.4908V13.6333H18.6493C20.1126 13.6333 21.5127 13.042 22.5294 11.9971C22.8633 12.5927 23.3833 13.0698 24.0093 13.352V17.4907C24.0093 20.6709 21.4104 23.1913 18.3086 23.1913C14.7538 23.1914 12.4193 20.429 12.4193 17.4908ZM14.3741 26.4866C15.6144 27.7181 15.1424 27.2495 16.2843 28.3832C15.4558 29.2173 15.7558 28.9153 14.7539 29.924L12.1754 27.3454L14.3741 26.4866Z" fill="black"/>
</svg>
