<svg width="93" height="93" viewBox="0 0 93 93" fill="none" xmlns="http://www.w3.org/2000/svg">
<path d="M61.8302 90.856H7.88184L7.88184 89.2502L7.88184 31.4583H89.692L89.692 88.0332C89.692 88.0332 89.8044 90.8718 86.7513 90.856C82.0291 90.8315 61.8302 90.856 61.8302 90.856Z" fill="#22303A"/>
<path fill-rule="evenodd" clip-rule="evenodd" d="M61.8335 92.8067L61.8302 92.8067L7.88193 92.8067C6.60984 92.8067 5.57861 91.9143 5.57861 90.8134L5.57861 31.4157C5.57861 30.3149 6.60984 29.4225 7.88193 29.4225H89.6921C90.9642 29.4225 91.9955 30.3149 91.9955 31.4157L91.9955 87.9702C91.9955 87.9754 91.9956 87.9808 91.9957 87.9866C91.9958 87.9957 91.9959 88.0056 91.996 88.0161C91.9961 88.0588 91.9955 88.1129 91.9931 88.1769C91.9884 88.304 91.9765 88.474 91.9486 88.6734C91.8944 89.0613 91.7721 89.616 91.4809 90.199C91.1871 90.7871 90.6899 91.4642 89.8547 91.9904C88.9964 92.5312 87.9385 92.8129 86.7376 92.8066C84.3861 92.7944 78.1652 92.7944 72.5215 92.7975C69.7019 92.799 67.0299 92.8013 65.0627 92.8032C64.0791 92.8042 63.2718 92.805 62.7103 92.8057L61.8371 92.8067L61.8344 92.8067H61.8335C61.8333 92.8067 61.8335 92.8067 61.8302 90.8134C61.8302 90.8134 82.0292 90.789 86.7514 90.8134C89.8045 90.8293 89.6921 87.9907 89.6921 87.9907L89.6921 31.4157H7.88193L7.88193 90.8134H61.8302L61.8335 92.8067Z" fill="black"/>
<path d="M7.89449 31.4158L7.89449 90.8135H4.20774C2.45695 90.8135 2.34668 89.2142 2.34668 89.2142L2.34668 31.4158H7.89449Z" fill="#2F4350"/>
<path fill-rule="evenodd" clip-rule="evenodd" d="M7.89459 29.4225C9.16667 29.4225 10.1979 30.3149 10.1979 31.4158L10.1979 90.8135C10.1979 91.9143 9.16667 92.8067 7.89459 92.8067H4.20783C2.29851 92.8067 1.14081 91.8481 0.588405 90.9518C0.337238 90.5443 0.208652 90.1581 0.140686 89.8878C0.105627 89.7483 0.0837675 89.6278 0.0700619 89.5346C0.0631649 89.4878 0.0582088 89.447 0.0546506 89.4132C0.0528688 89.3963 0.0514291 89.3811 0.0502678 89.3677L0.048724 89.3489L0.0480921 89.3406L0.0478087 89.3366L0.0476747 89.3347C0.0476097 89.3338 0.0475457 89.3329 2.34678 89.2142C2.34678 89.2142 2.45705 90.8135 4.20783 90.8135H7.89459L7.89459 31.4158H2.34678L2.34678 89.2142L0.0475457 89.3329C0.0448206 89.2933 0.043457 89.2538 0.043457 89.2142L0.043457 31.4158C0.043457 30.3149 1.07469 29.4225 2.34678 29.4225H7.89459Z" fill="black"/>
<path d="M89.6968 31.4163H7.88664H2.34069H2.30347L2.30347 28.2048C2.30347 26.424 3.95795 24.9932 6.02558 24.9932H85.9747C88.0386 24.9932 89.6968 26.424 89.6968 28.2048V31.4163Z" fill="#172026"/>
<path fill-rule="evenodd" clip-rule="evenodd" d="M92 31.4163C92 32.5172 90.9688 33.4096 89.6967 33.4096H2.30332C1.03123 33.4096 0 32.5172 0 31.4163L0 28.2048C0 25.3189 2.69059 23 6.02543 23H85.9746C89.3042 23 92 25.3176 92 28.2048V31.4163ZM89.6967 31.4163V28.2048C89.6967 26.424 88.0385 24.9932 85.9746 24.9932H6.02543C3.9578 24.9932 2.30332 26.424 2.30332 28.2048L2.30332 31.4163H89.6967Z" fill="black"/>
<path d="M66.8001 41.0573H40.4502C39.6833 41.0573 39.0635 40.3395 39.0635 39.4515C39.0635 38.5635 39.6833 37.8457 40.4502 37.8457H66.8001C67.567 37.8457 68.1868 38.5635 68.1868 39.4515C68.1868 40.3395 67.567 41.0573 66.8001 41.0573Z" fill="#66D1FF"/>
<path d="M70.9578 47.4798H43.2212C42.4543 47.4798 41.8345 46.762 41.8345 45.874C41.8345 44.986 42.4543 44.2682 43.2212 44.2682H70.9578C71.7247 44.2682 72.3445 44.986 72.3445 45.874C72.3445 46.762 71.7247 47.4798 70.9578 47.4798Z" fill="#51E199"/>
<path d="M62.6404 79.6156H43.2212C42.4543 79.6156 41.8345 78.8978 41.8345 78.0098C41.8345 77.1218 42.4543 76.4041 43.2212 76.4041H62.6404C63.4073 76.4041 64.0271 77.1218 64.0271 78.0098C64.0271 78.8978 63.4059 79.6156 62.6404 79.6156Z" fill="#51E199"/>
<path d="M79.2807 47.4798H76.5073C75.7405 47.4798 75.1206 46.762 75.1206 45.874C75.1206 44.986 75.7405 44.2682 76.5073 44.2682H79.2807C80.0475 44.2682 80.6674 44.986 80.6674 45.874C80.6674 46.762 80.0475 47.4798 79.2807 47.4798Z" fill="#51E199"/>
<path d="M48.7706 86.0196H40.4504C39.6836 86.0196 39.0637 85.3018 39.0637 84.4138C39.0637 83.5258 39.6836 82.808 40.4504 82.808H48.7706C49.5374 82.808 50.1573 83.5258 50.1573 84.4138C50.1573 85.3018 49.5374 86.0196 48.7706 86.0196Z" fill="#66D1FF"/>
<path d="M86.2325 53.907H57.1091C56.3423 53.907 55.7224 53.1892 55.7224 52.3012C55.7224 51.4132 56.3423 50.6954 57.1091 50.6954H86.2325C86.9993 50.6954 87.6192 51.4132 87.6192 52.3012C87.6192 53.1892 86.9993 53.907 86.2325 53.907Z" fill="#EB5757"/>
<path d="M64.022 60.3202H45.9922C45.2253 60.3202 44.6055 59.6024 44.6055 58.7144C44.6055 57.8264 45.2253 57.1086 45.9922 57.1086H64.022C64.7888 57.1086 65.4087 57.8264 65.4087 58.7144C65.4087 59.6024 64.7888 60.3202 64.022 60.3202Z" fill="#FFC757"/>
<path d="M75.1266 73.1793H45.9922C45.2253 73.1793 44.6055 72.4615 44.6055 71.5736C44.6055 70.6856 45.2253 69.9678 45.9922 69.9678H75.1266C75.8935 69.9678 76.5133 70.6856 76.5133 71.5736C76.5133 72.4615 75.8921 73.1793 75.1266 73.1793Z" fill="#EB5757"/>
<path d="M75.1357 66.7426H55.7234C54.9565 66.7426 54.3367 66.0248 54.3367 65.1368C54.3367 64.2488 54.9565 63.531 55.7234 63.531H75.1357C75.9025 63.531 76.5224 64.2488 76.5224 65.1368C76.5224 66.0248 75.9025 66.7426 75.1357 66.7426Z" fill="#FFC757"/>
<path d="M50.1536 66.7426H45.9922C45.2253 66.7426 44.6055 66.0248 44.6055 65.1368C44.6055 64.2488 45.2253 63.531 45.9922 63.531H50.1536C50.9205 63.531 51.5403 64.2488 51.5403 65.1368C51.5403 66.0248 50.9205 66.7426 50.1536 66.7426Z" fill="#FFC757"/>
<path d="M51.5389 53.907H45.9922C45.2253 53.907 44.6055 53.1892 44.6055 52.3012C44.6055 51.4132 45.2253 50.6954 45.9922 50.6954H51.5389C52.3058 50.6954 52.9256 51.4132 52.9256 52.3012C52.9256 53.1892 52.3058 53.907 51.5389 53.907Z" fill="#EB5757"/>
<path d="M19.4812 54.0751C19.0773 53.6646 18.4223 53.6646 18.0186 54.0751L11.8032 60.3939C11.6092 60.5912 11.5002 60.8586 11.5002 61.1376C11.5002 61.4166 11.6092 61.6838 11.8032 61.8812L17.9364 68.1165C18.1383 68.3217 18.403 68.4244 18.6677 68.4244C18.9323 68.4244 19.1971 68.3217 19.399 68.1165C19.8029 67.7057 19.8029 67.04 19.399 66.6294L13.9971 61.1377L19.4812 55.5623C19.8852 55.1516 19.8852 54.4859 19.4812 54.0751V54.0751Z" fill="#2CD37F"/>
<path d="M33.3905 68.1164C33.5924 68.3216 33.8572 68.4242 34.1218 68.4242C34.3864 68.4242 34.6512 68.3216 34.8531 68.1164L40.9864 61.8811C41.1803 61.6838 41.2892 61.4164 41.2892 61.1374C41.2892 60.8584 41.1803 60.5912 40.9864 60.3938L34.7709 54.075C34.367 53.6645 33.7121 53.6645 33.3083 54.075C32.9044 54.4858 32.9044 55.1514 33.3083 55.5621L38.7925 61.1374L33.3906 66.6291C32.9866 67.04 32.9866 67.7057 33.3905 68.1164V68.1164Z" fill="#2CD37F"/>
<path d="M22.7228 71.9896C23.1399 71.9896 23.5331 71.7311 23.6899 71.3109L31.0394 51.627C31.2421 51.084 30.9735 50.4768 30.4395 50.2707C29.9055 50.0644 29.3081 50.3377 29.1055 50.8806L21.7561 70.5647C21.5534 71.1076 21.822 71.7148 22.356 71.9209C22.4768 71.9676 22.6007 71.9896 22.7228 71.9896V71.9896Z" fill="#2CD37F"/>
<path d="M6.75512 29.8092C5.87911 29.8092 5.16309 29.0914 5.16309 28.2034C5.16309 27.3154 5.86326 26.5977 6.73769 26.5977H6.75512C7.62955 26.5977 8.33923 27.3154 8.33923 28.2034C8.33923 29.0914 7.62955 29.8092 6.75512 29.8092Z" fill="#FFC757"/>
<path d="M11.5037 29.8092C10.6276 29.8092 9.91162 29.0914 9.91162 28.2034C9.91162 27.3154 10.6118 26.5977 11.4862 26.5977H11.5037C12.3781 26.5977 13.0878 27.3154 13.0878 28.2034C13.0878 29.0914 12.3781 29.8092 11.5037 29.8092Z" fill="#2CD37F"/>
<path d="M16.2522 29.8092C15.3762 29.8092 14.6602 29.0914 14.6602 28.2034C14.6602 27.3154 15.3603 26.5977 16.2348 26.5977H16.2522C17.1266 26.5977 17.8363 27.3154 17.8363 28.2034C17.8363 29.0914 17.1266 29.8092 16.2522 29.8092Z" fill="#EB5757"/>
</svg>
