<svg width="104" height="92" viewBox="0 0 104 92" fill="none" xmlns="http://www.w3.org/2000/svg">
<path d="M52.0673 17.4891L70.2754 35.6892C70.9202 36.3338 71.7946 36.6958 72.7062 36.6958H97.779V83.6212H6.35547V36.696H31.4282C32.3399 36.696 33.2143 36.334 33.859 35.6894L52.0673 17.4891Z" fill="#EAB14D"/>
<path d="M72.7064 36.696C71.7948 36.696 70.9204 36.334 70.2756 35.6894L52.0673 17.4891L33.8592 35.6892C33.2145 36.3338 32.3401 36.6958 31.4284 36.6958H6.35547V41.1457H31.4363C33.5435 41.1457 35.5246 40.3251 37.0141 38.8352L50.6369 25.2124C51.4268 24.4225 52.7075 24.4225 53.4974 25.2124L67.12 38.835C68.6097 40.3251 70.591 41.1457 72.698 41.1457H91.3064C92.4235 41.1457 93.3291 42.0513 93.3291 43.1684V83.6212H97.779V36.696H72.7064Z" fill="#E7A52E"/>
<path d="M49.6359 10.1949C50.9787 8.85215 53.1558 8.85215 54.4985 10.1949L74.1227 29.8188H97.7792L88.2409 4.13854C87.6522 2.55352 86.1396 1.50171 84.4487 1.50171H19.686C17.995 1.50171 16.4825 2.55332 15.8938 4.13854L6.35547 29.8188H30.012L49.6359 10.1949Z" fill="#B7482F"/>
<path d="M88.241 4.13854C87.6523 2.55352 86.1398 1.50171 84.4488 1.50171H78.3809C80.0718 1.50171 81.5843 2.55332 82.173 4.13854L91.7114 29.8188H97.7793L88.241 4.13854Z" fill="#984747"/>
<path d="M101.824 34.6732C101.824 35.7903 100.919 36.6959 99.8018 36.6959H72.6984C71.7864 36.6959 70.9118 36.3337 70.2671 35.6888L52.0674 17.4891L33.8677 35.6888C33.2229 36.3335 32.3483 36.6959 31.4363 36.6959H4.33278C3.2157 36.6959 2.31006 35.7903 2.31006 34.6732V31.8416C2.31006 30.7245 3.2157 29.8188 4.33278 29.8188H30.0121L49.6362 10.1949C50.9789 8.85218 53.156 8.85218 54.4988 10.1949L74.1229 29.8188H99.802C100.919 29.8188 101.825 30.7245 101.825 31.8416V34.6732H101.824Z" fill="#E7ECF6"/>
<path d="M99.8021 29.8188H92.925C94.0421 29.8188 94.9478 30.7245 94.9478 31.8416V34.6732C94.9478 35.7903 94.0421 36.6959 92.925 36.6959H99.8021C100.919 36.6959 101.825 35.7903 101.825 34.6732V31.8416C101.825 30.7245 100.919 29.8188 99.8021 29.8188Z" fill="#D8E2F1"/>
<path d="M70.8779 51.6636H91.1043V71.89H70.8779V51.6636Z" fill="#9DC6FB"/>
<path d="M70.8779 71.8899H91.1043V78.3623H70.8779V71.8899Z" fill="#AA8080"/>
<path d="M13.0303 51.6636H33.2567V71.89H13.0303V51.6636Z" fill="#9DC6FB"/>
<path d="M13.0303 71.8899H33.2567V78.3623H13.0303V71.8899Z" fill="#AA8080"/>
<path d="M40.7407 51.6636H63.3943V83.6215H40.7407V51.6636Z" fill="#8B5E5E"/>
<path d="M47.2131 58.136H56.9219V64.6084H47.2131V58.136Z" fill="#9DC6FB"/>
<path d="M52.0674 44.1795C55.642 44.1795 58.5398 41.2817 58.5398 37.707C58.5398 34.1324 55.642 31.2346 52.0674 31.2346C48.4928 31.2346 45.595 34.1324 45.595 37.707C45.595 41.2817 48.4928 44.1795 52.0674 44.1795Z" fill="#9DC6FB"/>
<path d="M2.3103 83.6212H101.825V90.4983H2.3103V83.6212Z" fill="#B7482F"/>
<path d="M94.9475 83.6212H101.825V90.4983H94.9475V83.6212Z" fill="#984747"/>
<path d="M99.8018 28.3171H98.8233L89.6486 3.61575C88.8452 1.45307 86.7557 0 84.4486 0H19.6861C17.3792 0 15.2894 1.45307 14.4861 3.61575L5.31156 28.3171H4.33304C2.38961 28.3171 0.808594 29.8981 0.808594 31.8415V34.6732C0.808594 36.6166 2.38961 38.1976 4.33304 38.1976H4.85404V71.1134C4.85404 71.9428 5.52621 72.6152 6.35576 72.6152C7.18531 72.6152 7.85748 71.9428 7.85748 71.1134V38.1976H31.4366C32.7561 38.1976 33.9967 37.6839 34.93 36.7506L52.0674 19.6127L69.2053 36.7506C70.1384 37.6837 71.379 38.1974 72.6985 38.1974H96.2776V42.1788C96.2776 43.0082 96.9498 43.6805 97.7793 43.6805C98.6089 43.6805 99.281 43.0082 99.281 42.1788V38.1974H99.802C101.745 38.1974 103.326 36.6164 103.326 34.673V31.8413C103.326 29.8981 101.745 28.3171 99.8018 28.3171ZM17.3015 4.66135C17.6699 3.66961 18.6282 3.00345 19.6861 3.00345H84.4486C85.5064 3.00345 86.4647 3.66981 86.8331 4.66135L95.6194 28.3171H74.7449L55.5606 9.13308C54.6276 8.20001 53.3871 7.68602 52.0674 7.68602C50.7477 7.68602 49.5073 8.19981 48.5742 9.13308L29.39 28.3171H8.51524L17.3015 4.66135ZM100.323 34.6732C100.323 34.9605 100.089 35.1942 99.8018 35.1942H72.6985C72.1811 35.1942 71.6946 34.9928 71.3289 34.6269L53.1293 16.4273C52.8475 16.1455 52.4657 15.9874 52.0672 15.9874C51.6688 15.9874 51.2871 16.1455 51.0052 16.4273L32.8057 34.6269C32.4399 34.9928 31.9533 35.1942 31.4359 35.1942H4.33304C4.04571 35.1942 3.81204 34.9605 3.81204 34.6732V31.8415C3.81204 31.5542 4.04571 31.3206 4.33304 31.3206H30.0121C30.4104 31.3206 30.7922 31.1624 31.0741 30.8806L50.6983 11.2567C51.0639 10.8909 51.5502 10.6895 52.0676 10.6895C52.585 10.6895 53.0714 10.8909 53.437 11.2567L73.0611 30.8806C73.3428 31.1624 73.7247 31.3206 74.1232 31.3206H99.8022C100.09 31.3206 100.323 31.5542 100.323 31.8415V34.6732H100.323Z" fill="black"/>
<path d="M91.1046 79.864C91.9341 79.864 92.6063 79.1917 92.6063 78.3623V51.6635C92.6063 50.8341 91.9341 50.1617 91.1046 50.1617H70.8779C70.0484 50.1617 69.3762 50.8341 69.3762 51.6635V78.3623C69.3762 79.1917 70.0484 79.864 70.8779 79.864H91.1046ZM89.6028 70.3882H82.4929V63.2784H89.6028V70.3882ZM79.4894 70.3882H72.3797V63.2784H79.4894V70.3882ZM89.6028 76.8606H72.3797V73.3916H89.6028V76.8606ZM89.6028 60.2747H82.4929V53.165H89.6028V60.2747ZM79.4894 53.1652V60.2749H72.3797V53.1652H79.4894Z" fill="black"/>
<path d="M33.2569 79.864C34.0865 79.864 34.7586 79.1917 34.7586 78.3623V51.6635C34.7586 50.8341 34.0865 50.1617 33.2569 50.1617H13.0303C12.2007 50.1617 11.5286 50.8341 11.5286 51.6635V78.3623C11.5286 79.1917 12.2007 79.864 13.0303 79.864H33.2569ZM31.7552 70.3882H24.6454V63.2784H31.7552V70.3882ZM21.642 70.3882H14.532V63.2784H21.642V70.3882ZM31.7552 76.8606H14.532V73.3916H31.7552V76.8606ZM31.7552 60.2747H24.6454V53.165H31.7552V60.2747ZM21.642 53.1652V60.2749H14.532V53.1652H21.642Z" fill="black"/>
<path d="M56.9219 56.6343H47.2131C46.3836 56.6343 45.7114 57.3066 45.7114 58.136V64.6084C45.7114 65.4378 46.3836 66.1102 47.2131 66.1102H56.9219C57.7514 66.1102 58.4236 65.4378 58.4236 64.6084V58.136C58.4236 57.3066 57.7514 56.6343 56.9219 56.6343ZM55.4202 63.1067H48.7149V59.6377H55.4202V63.1067Z" fill="black"/>
<path d="M60.0416 37.7071C60.0416 33.3102 56.4645 29.7329 52.0674 29.7329C47.6704 29.7329 44.0933 33.3102 44.0933 37.7071C44.0933 42.1039 47.6704 45.6814 52.0674 45.6814C56.4645 45.6814 60.0416 42.1041 60.0416 37.7071ZM47.0967 37.7071C47.0967 34.9663 49.3267 32.7364 52.0674 32.7364C54.8082 32.7364 57.0381 34.9663 57.0381 37.7071C57.0381 40.4478 54.8082 42.678 52.0674 42.678C49.3267 42.678 47.0967 40.448 47.0967 37.7071Z" fill="black"/>
<path d="M101.825 82.1195H99.281V49.2038C99.281 48.3744 98.6089 47.702 97.7793 47.702C96.9498 47.702 96.2776 48.3744 96.2776 49.2038V82.1195H64.896V51.6636C64.896 50.8342 64.2238 50.1619 63.3942 50.1619H40.7406C39.9111 50.1619 39.2389 50.8342 39.2389 51.6636V82.1195H7.85728V78.1382C7.85728 77.3088 7.18511 76.6364 6.35556 76.6364C5.52601 76.6364 4.85384 77.3088 4.85384 78.1382V82.1195H2.31032C1.48077 82.1195 0.808594 82.7919 0.808594 83.6213V90.4984C0.808594 91.3277 1.48077 92.0001 2.31032 92.0001H101.825C102.654 92.0001 103.326 91.3277 103.326 90.4984V83.6213C103.326 82.7919 102.654 82.1195 101.825 82.1195ZM42.2424 71.1668H44.3816C45.2112 71.1668 45.8833 70.4944 45.8833 69.665C45.8833 68.8357 45.2112 68.1633 44.3816 68.1633H42.2424V53.1653H61.8927V82.1195H42.2424V71.1668ZM100.323 88.9966H3.81204V85.123H100.323V88.9966Z" fill="black"/>
</svg>
